<svg xmlns="http://www.w3.org/2000/svg" xmlns:xlink="http://www.w3.org/1999/xlink" width="160" zoomAndPan="magnify" viewBox="0 0 120 30.000001" height="40" preserveAspectRatio="xMidYMid meet" version="1.0"><defs><g/><clipPath id="55b151966d"><path d="M 2.242188 10 L 18 10 L 18 24.671875 L 2.242188 24.671875 Z M 2.242188 10 " clip-rule="nonzero"/></clipPath><clipPath id="3f6937700c"><path d="M 9 2.476562 L 24.433594 2.476562 L 24.433594 16 L 9 16 Z M 9 2.476562 " clip-rule="nonzero"/></clipPath><clipPath id="591c487da4"><path d="M 3 5 L 24.433594 5 L 24.433594 21 L 3 21 Z M 3 5 " clip-rule="nonzero"/></clipPath></defs><g clip-path="url(#55b151966d)"><path fill="#ffffff" d="M 16.664062 19.832031 C 16.339844 19.503906 16.042969 19.160156 15.765625 18.789062 L 15.765625 20.933594 C 15.773438 21.238281 15.71875 21.535156 15.609375 21.820312 C 15.496094 22.105469 15.332031 22.355469 15.117188 22.574219 C 14.902344 22.792969 14.65625 22.960938 14.375 23.078125 C 14.089844 23.195312 13.796875 23.257812 13.492188 23.257812 C 13.1875 23.257812 12.890625 23.195312 12.609375 23.078125 C 12.328125 22.960938 12.078125 22.792969 11.867188 22.574219 C 11.652344 22.355469 11.488281 22.105469 11.375 21.820312 C 11.261719 21.535156 11.210938 21.238281 11.214844 20.933594 L 11.214844 16.003906 L 6.285156 16.003906 C 5.792969 16.003906 5.34375 15.855469 4.945312 15.566406 C 4.546875 15.277344 4.273438 14.894531 4.121094 14.425781 C 3.96875 13.957031 3.96875 13.484375 4.125 13.015625 C 4.28125 12.546875 4.558594 12.167969 4.957031 11.878906 L 5.132812 11.757812 C 4.910156 11.570312 4.703125 11.371094 4.511719 11.152344 C 4.308594 10.921875 4.117188 10.679688 3.941406 10.429688 L 3.855469 10.492188 C 3.519531 10.746094 3.226562 11.046875 2.980469 11.394531 C 2.738281 11.742188 2.550781 12.117188 2.425781 12.523438 C 2.296875 12.929688 2.238281 13.34375 2.242188 13.765625 C 2.246094 14.191406 2.316406 14.605469 2.449219 15.007812 C 2.582031 15.410156 2.777344 15.78125 3.027344 16.125 C 3.28125 16.464844 3.578125 16.761719 3.921875 17.007812 C 4.265625 17.257812 4.640625 17.445312 5.042969 17.578125 C 5.449219 17.707031 5.863281 17.773438 6.285156 17.773438 L 9.445312 17.773438 L 9.445312 20.929688 C 9.441406 21.199219 9.464844 21.464844 9.511719 21.726562 C 9.5625 21.992188 9.636719 22.25 9.734375 22.496094 C 9.835938 22.746094 9.960938 22.984375 10.105469 23.207031 C 10.253906 23.433594 10.421875 23.640625 10.609375 23.832031 C 10.796875 24.023438 11.003906 24.191406 11.222656 24.34375 C 11.445312 24.492188 11.679688 24.621094 11.929688 24.722656 C 12.175781 24.828125 12.433594 24.90625 12.695312 24.957031 C 12.957031 25.011719 13.222656 25.039062 13.492188 25.039062 C 13.761719 25.039062 14.027344 25.011719 14.289062 24.957031 C 14.550781 24.90625 14.808594 24.828125 15.054688 24.722656 C 15.300781 24.621094 15.535156 24.492188 15.757812 24.34375 C 15.980469 24.191406 16.1875 24.023438 16.375 23.832031 C 16.5625 23.640625 16.730469 23.433594 16.878906 23.207031 C 17.023438 22.984375 17.148438 22.746094 17.246094 22.496094 C 17.347656 22.25 17.421875 21.992188 17.46875 21.726562 C 17.519531 21.464844 17.542969 21.199219 17.539062 20.929688 L 17.539062 20.566406 C 17.226562 20.34375 16.933594 20.101562 16.664062 19.832031 Z M 16.664062 19.832031 " fill-opacity="1" fill-rule="nonzero"/></g><g clip-path="url(#3f6937700c)"><path fill="#ffffff" d="M 9.828125 10.460938 C 9.695312 10.773438 9.507812 11.054688 9.269531 11.300781 L 9.328125 11.433594 L 9.328125 11.445312 L 11.214844 11.445312 L 11.214844 6.519531 C 11.222656 6.222656 11.285156 5.9375 11.402344 5.664062 C 11.519531 5.390625 11.6875 5.148438 11.898438 4.941406 C 12.109375 4.734375 12.355469 4.574219 12.632812 4.460938 C 12.90625 4.347656 13.195312 4.289062 13.492188 4.289062 C 13.789062 4.289062 14.078125 4.347656 14.351562 4.460938 C 14.628906 4.574219 14.871094 4.734375 15.085938 4.941406 C 15.296875 5.148438 15.464844 5.390625 15.582031 5.664062 C 15.699219 5.9375 15.761719 6.222656 15.765625 6.519531 L 15.765625 11.449219 L 16.613281 11.449219 C 17.210938 11.164062 17.804688 11.164062 18.402344 11.449219 L 20.695312 11.449219 C 20.996094 11.453125 21.289062 11.507812 21.566406 11.625 C 21.84375 11.742188 22.089844 11.90625 22.304688 12.117188 C 22.515625 12.332031 22.679688 12.578125 22.796875 12.855469 C 22.914062 13.132812 22.96875 13.425781 22.96875 13.726562 C 22.96875 13.863281 22.957031 14.003906 22.933594 14.136719 C 23.574219 14.265625 24.113281 14.519531 24.429688 15.082031 C 24.449219 15.113281 24.460938 15.140625 24.476562 15.175781 L 24.535156 14.996094 C 24.636719 14.691406 24.699219 14.378906 24.726562 14.0625 C 24.753906 13.742188 24.742188 13.425781 24.691406 13.109375 C 24.644531 12.792969 24.558594 12.484375 24.4375 12.191406 C 24.316406 11.894531 24.160156 11.617188 23.972656 11.355469 C 23.785156 11.097656 23.570312 10.863281 23.328125 10.65625 C 23.085938 10.449219 22.820312 10.269531 22.535156 10.125 C 22.25 9.980469 21.953125 9.871094 21.640625 9.792969 C 21.332031 9.71875 21.015625 9.683594 20.695312 9.683594 L 17.539062 9.683594 L 17.539062 6.519531 C 17.535156 6.257812 17.503906 5.996094 17.449219 5.742188 C 17.394531 5.484375 17.316406 5.234375 17.210938 4.992188 C 17.109375 4.75 16.984375 4.519531 16.835938 4.300781 C 16.6875 4.085938 16.519531 3.882812 16.332031 3.699219 C 16.144531 3.515625 15.941406 3.351562 15.71875 3.207031 C 15.5 3.058594 15.269531 2.9375 15.027344 2.839844 C 14.78125 2.738281 14.53125 2.664062 14.273438 2.613281 C 14.015625 2.5625 13.753906 2.535156 13.492188 2.535156 C 13.230469 2.535156 12.96875 2.5625 12.710938 2.613281 C 12.453125 2.664062 12.199219 2.738281 11.957031 2.839844 C 11.714844 2.9375 11.484375 3.058594 11.261719 3.207031 C 11.042969 3.351562 10.839844 3.515625 10.652344 3.699219 C 10.464844 3.882812 10.296875 4.085938 10.148438 4.300781 C 10 4.519531 9.875 4.75 9.769531 4.992188 C 9.667969 5.234375 9.589844 5.484375 9.535156 5.742188 C 9.480469 5.996094 9.449219 6.257812 9.445312 6.519531 L 9.445312 6.59375 C 9.921875 7.753906 10.195312 9.574219 9.828125 10.460938 Z M 9.828125 10.460938 " fill-opacity="1" fill-rule="nonzero"/></g><g clip-path="url(#591c487da4)"><path fill="#ffffff" d="M 3.519531 8.386719 C 3.597656 8.96875 4.191406 10.007812 4.902344 10.808594 C 5.191406 11.136719 5.625 11.558594 6.035156 11.710938 C 6.410156 11.835938 6.792969 11.875 7.183594 11.816406 L 7.390625 12.28125 C 7.453125 12.429688 7.566406 12.519531 7.730469 12.546875 L 7.75 12.613281 L 7.964844 12.519531 C 7.984375 12.582031 8.007812 12.636719 8.03125 12.691406 C 8.175781 13.015625 8.363281 13.3125 8.597656 13.578125 C 9.015625 14.035156 9.515625 14.367188 10.101562 14.570312 C 10.933594 14.867188 11.632812 14.769531 12.253906 14.679688 C 13.3125 14.527344 14.011719 14.429688 14.972656 16.457031 C 15.527344 17.628906 16.257812 18.695312 17.03125 19.460938 C 17.949219 20.371094 18.925781 20.859375 19.851562 20.882812 C 21.226562 20.910156 22.4375 19.964844 23.441406 18.0625 C 24.128906 16.773438 24.300781 15.90625 23.976562 15.335938 C 23.582031 14.632812 22.601562 14.578125 21.46875 14.515625 C 20.605469 14.464844 19.632812 14.410156 18.859375 14.046875 C 18.921875 13.9375 18.96875 13.824219 19 13.703125 C 19.03125 13.582031 19.050781 13.457031 19.050781 13.332031 C 19.054688 13.207031 19.042969 13.082031 19.015625 12.960938 C 18.984375 12.839844 18.945312 12.722656 18.886719 12.609375 C 18.832031 12.496094 18.761719 12.394531 18.679688 12.296875 C 18.597656 12.203125 18.507812 12.121094 18.402344 12.046875 C 18.300781 11.972656 18.191406 11.914062 18.074219 11.871094 C 17.957031 11.824219 17.839844 11.792969 17.714844 11.777344 C 17.589844 11.757812 17.464844 11.757812 17.339844 11.773438 C 17.214844 11.785156 17.09375 11.816406 16.976562 11.859375 C 16.859375 11.902344 16.75 11.960938 16.644531 12.03125 C 16.542969 12.101562 16.449219 12.183594 16.363281 12.277344 C 16.28125 12.371094 16.210938 12.472656 16.152344 12.582031 C 16.09375 12.695312 16.046875 12.808594 16.019531 12.929688 C 15.988281 13.054688 15.972656 13.175781 15.972656 13.300781 C 15.972656 13.425781 15.988281 13.550781 16.019531 13.671875 C 16.046875 13.792969 16.09375 13.910156 16.152344 14.023438 C 16.210938 14.132812 16.28125 14.234375 16.363281 14.328125 C 16.449219 14.421875 16.542969 14.503906 16.644531 14.574219 C 16.75 14.644531 16.859375 14.703125 16.976562 14.746094 C 17.09375 14.789062 17.214844 14.820312 17.339844 14.832031 C 17.464844 14.847656 17.589844 14.84375 17.714844 14.828125 C 17.835938 14.8125 17.957031 14.78125 18.074219 14.734375 C 18.191406 14.691406 18.300781 14.632812 18.402344 14.558594 C 19.335938 15.050781 20.449219 15.117188 21.433594 15.171875 C 22.335938 15.222656 23.1875 15.269531 23.40625 15.660156 C 23.539062 15.894531 23.550781 16.449219 22.863281 17.753906 C 21.976562 19.417969 20.96875 20.25 19.867188 20.222656 C 18.09375 20.183594 16.445312 18.019531 15.574219 16.179688 C 14.402344 13.707031 13.261719 13.871094 12.160156 14.027344 C 11.589844 14.109375 11.003906 14.195312 10.324219 13.949219 C 9.25 13.5625 8.777344 12.835938 8.566406 12.261719 L 8.613281 12.242188 C 8.726562 12.191406 8.804688 12.105469 8.851562 11.992188 C 8.898438 11.875 8.894531 11.761719 8.84375 11.644531 L 8.640625 11.179688 C 8.949219 10.929688 9.183594 10.625 9.34375 10.261719 C 9.738281 9.316406 9.230469 6.90625 8.613281 6.164062 C 8.332031 5.828125 7.910156 5.636719 7.371094 5.601562 C 7.222656 5.324219 6.984375 5.183594 6.667969 5.183594 C 6.53125 5.183594 6.40625 5.214844 6.285156 5.28125 C 6.167969 5.34375 6.074219 5.433594 6 5.542969 C 5.925781 5.65625 5.882812 5.78125 5.871094 5.914062 C 5.859375 6.050781 5.882812 6.175781 5.933594 6.300781 C 6.078125 6.628906 6.328125 6.789062 6.6875 6.78125 C 7.042969 6.773438 7.289062 6.601562 7.414062 6.265625 C 7.714844 6.296875 7.941406 6.394531 8.089844 6.5625 L 8.105469 6.578125 C 8.320312 6.84375 8.5625 7.515625 8.703125 8.257812 C 8.84375 8.996094 8.855469 9.707031 8.734375 10.003906 C 8.507812 10.542969 7.894531 10.90625 7.703125 11.011719 C 7.496094 11.082031 6.8125 11.285156 6.261719 11.082031 C 5.960938 10.972656 5.457031 10.484375 5.003906 9.871094 C 4.550781 9.253906 4.222656 8.628906 4.175781 8.285156 C 4.148438 8.058594 4.226562 7.820312 4.414062 7.566406 C 4.539062 7.617188 4.667969 7.636719 4.800781 7.621094 C 4.933594 7.605469 5.054688 7.558594 5.167969 7.484375 C 5.277344 7.40625 5.363281 7.308594 5.425781 7.191406 C 5.484375 7.070312 5.515625 6.945312 5.511719 6.8125 C 5.511719 6.679688 5.476562 6.550781 5.414062 6.433594 C 5.347656 6.316406 5.257812 6.222656 5.144531 6.152344 C 5.03125 6.078125 4.910156 6.035156 4.777344 6.027344 C 4.644531 6.015625 4.515625 6.035156 4.390625 6.089844 C 4.199219 6.175781 4.058594 6.3125 3.976562 6.507812 C 3.890625 6.699219 3.886719 6.898438 3.957031 7.097656 C 3.613281 7.511719 3.464844 7.957031 3.519531 8.386719 Z M 3.519531 8.386719 " fill-opacity="1" fill-rule="nonzero"/></g><g fill="#ffffff" fill-opacity="1"><g transform="translate(26.612377, 17.691819)"><g><path d="M 1.109375 -9.421875 L 5.390625 -9.421875 C 6.410156 -9.421875 7.3125 -9.222656 8.09375 -8.828125 C 8.882812 -8.441406 9.5 -7.894531 9.9375 -7.1875 C 10.375 -6.476562 10.59375 -5.648438 10.59375 -4.703125 C 10.59375 -3.765625 10.375 -2.941406 9.9375 -2.234375 C 9.5 -1.523438 8.882812 -0.972656 8.09375 -0.578125 C 7.3125 -0.191406 6.410156 0 5.390625 0 L 1.109375 0 Z M 5.28125 -1.796875 C 6.226562 -1.796875 6.976562 -2.054688 7.53125 -2.578125 C 8.09375 -3.097656 8.375 -3.804688 8.375 -4.703125 C 8.375 -5.597656 8.09375 -6.304688 7.53125 -6.828125 C 6.976562 -7.359375 6.226562 -7.625 5.28125 -7.625 L 3.296875 -7.625 L 3.296875 -1.796875 Z M 5.28125 -1.796875 "/></g></g></g><g fill="#ffffff" fill-opacity="1"><g transform="translate(37.723, 17.691819)"><g><path d="M 5.671875 0.15625 C 4.691406 0.15625 3.8125 -0.0507812 3.03125 -0.46875 C 2.25 -0.894531 1.632812 -1.476562 1.1875 -2.21875 C 0.75 -2.957031 0.53125 -3.785156 0.53125 -4.703125 C 0.53125 -5.628906 0.75 -6.460938 1.1875 -7.203125 C 1.632812 -7.941406 2.25 -8.519531 3.03125 -8.9375 C 3.8125 -9.363281 4.691406 -9.578125 5.671875 -9.578125 C 6.648438 -9.578125 7.53125 -9.363281 8.3125 -8.9375 C 9.09375 -8.519531 9.707031 -7.941406 10.15625 -7.203125 C 10.601562 -6.460938 10.828125 -5.628906 10.828125 -4.703125 C 10.828125 -3.785156 10.601562 -2.957031 10.15625 -2.21875 C 9.707031 -1.476562 9.09375 -0.894531 8.3125 -0.46875 C 7.53125 -0.0507812 6.648438 0.15625 5.671875 0.15625 Z M 5.671875 -1.6875 C 6.234375 -1.6875 6.738281 -1.816406 7.1875 -2.078125 C 7.632812 -2.335938 7.984375 -2.691406 8.234375 -3.140625 C 8.492188 -3.597656 8.625 -4.117188 8.625 -4.703125 C 8.625 -5.285156 8.492188 -5.804688 8.234375 -6.265625 C 7.984375 -6.722656 7.632812 -7.078125 7.1875 -7.328125 C 6.738281 -7.585938 6.234375 -7.71875 5.671875 -7.71875 C 5.117188 -7.71875 4.617188 -7.585938 4.171875 -7.328125 C 3.722656 -7.078125 3.367188 -6.722656 3.109375 -6.265625 C 2.859375 -5.804688 2.734375 -5.285156 2.734375 -4.703125 C 2.734375 -4.117188 2.859375 -3.597656 3.109375 -3.140625 C 3.367188 -2.691406 3.722656 -2.335938 4.171875 -2.078125 C 4.617188 -1.816406 5.117188 -1.6875 5.671875 -1.6875 Z M 5.671875 -1.6875 "/></g></g></g><g fill="#ffffff" fill-opacity="1"><g transform="translate(49.075743, 17.691819)"><g><path d="M 5.625 0.15625 C 4.664062 0.15625 3.796875 -0.0507812 3.015625 -0.46875 C 2.242188 -0.882812 1.632812 -1.460938 1.1875 -2.203125 C 0.75 -2.941406 0.53125 -3.773438 0.53125 -4.703125 C 0.53125 -5.640625 0.75 -6.476562 1.1875 -7.21875 C 1.632812 -7.957031 2.242188 -8.535156 3.015625 -8.953125 C 3.796875 -9.367188 4.671875 -9.578125 5.640625 -9.578125 C 6.453125 -9.578125 7.1875 -9.429688 7.84375 -9.140625 C 8.507812 -8.859375 9.066406 -8.445312 9.515625 -7.90625 L 8.109375 -6.625 C 7.472656 -7.351562 6.6875 -7.71875 5.75 -7.71875 C 5.164062 -7.71875 4.644531 -7.585938 4.1875 -7.328125 C 3.726562 -7.078125 3.367188 -6.722656 3.109375 -6.265625 C 2.859375 -5.804688 2.734375 -5.285156 2.734375 -4.703125 C 2.734375 -4.117188 2.859375 -3.597656 3.109375 -3.140625 C 3.367188 -2.691406 3.726562 -2.335938 4.1875 -2.078125 C 4.644531 -1.816406 5.164062 -1.6875 5.75 -1.6875 C 6.6875 -1.6875 7.472656 -2.0625 8.109375 -2.8125 L 9.515625 -1.515625 C 9.066406 -0.972656 8.507812 -0.554688 7.84375 -0.265625 C 7.175781 0.015625 6.4375 0.15625 5.625 0.15625 Z M 5.625 0.15625 "/></g></g></g><g fill="#ffffff" fill-opacity="1"><g transform="translate(58.935414, 17.691819)"><g><path d="M 3.0625 -7.640625 L 0.046875 -7.640625 L 0.046875 -9.421875 L 8.265625 -9.421875 L 8.265625 -7.640625 L 5.25 -7.640625 L 5.25 0 L 3.0625 0 Z M 3.0625 -7.640625 "/></g></g></g><g fill="#ffffff" fill-opacity="1"><g transform="translate(67.248212, 17.691819)"><g><path d="M 5.671875 0.15625 C 4.691406 0.15625 3.8125 -0.0507812 3.03125 -0.46875 C 2.25 -0.894531 1.632812 -1.476562 1.1875 -2.21875 C 0.75 -2.957031 0.53125 -3.785156 0.53125 -4.703125 C 0.53125 -5.628906 0.75 -6.460938 1.1875 -7.203125 C 1.632812 -7.941406 2.25 -8.519531 3.03125 -8.9375 C 3.8125 -9.363281 4.691406 -9.578125 5.671875 -9.578125 C 6.648438 -9.578125 7.53125 -9.363281 8.3125 -8.9375 C 9.09375 -8.519531 9.707031 -7.941406 10.15625 -7.203125 C 10.601562 -6.460938 10.828125 -5.628906 10.828125 -4.703125 C 10.828125 -3.785156 10.601562 -2.957031 10.15625 -2.21875 C 9.707031 -1.476562 9.09375 -0.894531 8.3125 -0.46875 C 7.53125 -0.0507812 6.648438 0.15625 5.671875 0.15625 Z M 5.671875 -1.6875 C 6.234375 -1.6875 6.738281 -1.816406 7.1875 -2.078125 C 7.632812 -2.335938 7.984375 -2.691406 8.234375 -3.140625 C 8.492188 -3.597656 8.625 -4.117188 8.625 -4.703125 C 8.625 -5.285156 8.492188 -5.804688 8.234375 -6.265625 C 7.984375 -6.722656 7.632812 -7.078125 7.1875 -7.328125 C 6.738281 -7.585938 6.234375 -7.71875 5.671875 -7.71875 C 5.117188 -7.71875 4.617188 -7.585938 4.171875 -7.328125 C 3.722656 -7.078125 3.367188 -6.722656 3.109375 -6.265625 C 2.859375 -5.804688 2.734375 -5.285156 2.734375 -4.703125 C 2.734375 -4.117188 2.859375 -3.597656 3.109375 -3.140625 C 3.367188 -2.691406 3.722656 -2.335938 4.171875 -2.078125 C 4.617188 -1.816406 5.117188 -1.6875 5.671875 -1.6875 Z M 5.671875 -1.6875 "/></g></g></g><g fill="#ffffff" fill-opacity="1"><g transform="translate(78.600956, 17.691819)"><g><path d="M 7.109375 0 L 5.296875 -2.625 L 3.296875 -2.625 L 3.296875 0 L 1.109375 0 L 1.109375 -9.421875 L 5.1875 -9.421875 C 6.019531 -9.421875 6.742188 -9.28125 7.359375 -9 C 7.972656 -8.71875 8.445312 -8.320312 8.78125 -7.8125 C 9.113281 -7.300781 9.28125 -6.695312 9.28125 -6 C 9.28125 -5.300781 9.113281 -4.695312 8.78125 -4.1875 C 8.445312 -3.6875 7.96875 -3.300781 7.34375 -3.03125 L 9.453125 0 Z M 7.078125 -6 C 7.078125 -6.53125 6.90625 -6.9375 6.5625 -7.21875 C 6.21875 -7.5 5.722656 -7.640625 5.078125 -7.640625 L 3.296875 -7.640625 L 3.296875 -4.359375 L 5.078125 -4.359375 C 5.722656 -4.359375 6.21875 -4.5 6.5625 -4.78125 C 6.90625 -5.070312 7.078125 -5.476562 7.078125 -6 Z M 7.078125 -6 "/></g></g></g><g fill="#ffffff" fill-opacity="1"><g transform="translate(88.487526, 17.691819)"><g><path d="M 1.109375 -9.421875 L 3.296875 -9.421875 L 3.296875 0 L 1.109375 0 Z M 1.109375 -9.421875 "/></g></g></g><g fill="#ffffff" fill-opacity="1"><g transform="translate(92.899496, 17.691819)"><g><path d="M 9.75 -9.421875 L 9.75 0 L 7.96875 0 L 3.265625 -5.71875 L 3.265625 0 L 1.109375 0 L 1.109375 -9.421875 L 2.921875 -9.421875 L 7.59375 -3.703125 L 7.59375 -9.421875 Z M 9.75 -9.421875 "/></g></g></g><g fill="#ffffff" fill-opacity="1"><g transform="translate(103.767998, 17.691819)"><g><path d="M 5.671875 0.15625 C 4.691406 0.15625 3.8125 -0.0507812 3.03125 -0.46875 C 2.25 -0.894531 1.632812 -1.476562 1.1875 -2.21875 C 0.75 -2.957031 0.53125 -3.785156 0.53125 -4.703125 C 0.53125 -5.628906 0.75 -6.460938 1.1875 -7.203125 C 1.632812 -7.941406 2.25 -8.519531 3.03125 -8.9375 C 3.8125 -9.363281 4.691406 -9.578125 5.671875 -9.578125 C 6.648438 -9.578125 7.53125 -9.363281 8.3125 -8.9375 C 9.09375 -8.519531 9.707031 -7.941406 10.15625 -7.203125 C 10.601562 -6.460938 10.828125 -5.628906 10.828125 -4.703125 C 10.828125 -3.785156 10.601562 -2.957031 10.15625 -2.21875 C 9.707031 -1.476562 9.09375 -0.894531 8.3125 -0.46875 C 7.53125 -0.0507812 6.648438 0.15625 5.671875 0.15625 Z M 5.671875 -1.6875 C 6.234375 -1.6875 6.738281 -1.816406 7.1875 -2.078125 C 7.632812 -2.335938 7.984375 -2.691406 8.234375 -3.140625 C 8.492188 -3.597656 8.625 -4.117188 8.625 -4.703125 C 8.625 -5.285156 8.492188 -5.804688 8.234375 -6.265625 C 7.984375 -6.722656 7.632812 -7.078125 7.1875 -7.328125 C 6.738281 -7.585938 6.234375 -7.71875 5.671875 -7.71875 C 5.117188 -7.71875 4.617188 -7.585938 4.171875 -7.328125 C 3.722656 -7.078125 3.367188 -6.722656 3.109375 -6.265625 C 2.859375 -5.804688 2.734375 -5.285156 2.734375 -4.703125 C 2.734375 -4.117188 2.859375 -3.597656 3.109375 -3.140625 C 3.367188 -2.691406 3.722656 -2.335938 4.171875 -2.078125 C 4.617188 -1.816406 5.117188 -1.6875 5.671875 -1.6875 Z M 5.671875 -1.6875 "/></g></g></g></svg>