<svg xmlns="http://www.w3.org/2000/svg" xmlns:xlink="http://www.w3.org/1999/xlink" width="300" zoomAndPan="magnify" viewBox="0 0 224.87999 74.999997" height="100" preserveAspectRatio="xMidYMid meet" version="1.0"><defs><g/><clipPath id="1cf423d4fd"><path d="M 0 29 L 30 29 L 30 57.6875 L 0 57.6875 Z M 0 29 " clip-rule="nonzero"/></clipPath><clipPath id="ee7eef8836"><path d="M 13 13.671875 L 44.015625 13.671875 L 44.015625 39 L 13 39 Z M 13 13.671875 " clip-rule="nonzero"/></clipPath></defs><g clip-path="url(#1cf423d4fd)"><path fill="#7bc1b7" d="M 28.140625 47.570312 C 27.503906 46.933594 26.914062 46.25 26.375 45.527344 L 26.375 49.738281 C 26.382812 50.039062 26.359375 50.332031 26.304688 50.625 C 26.253906 50.917969 26.171875 51.203125 26.0625 51.480469 C 25.953125 51.757812 25.816406 52.019531 25.652344 52.269531 C 25.492188 52.519531 25.304688 52.75 25.097656 52.960938 C 24.890625 53.175781 24.664062 53.363281 24.417969 53.53125 C 24.171875 53.699219 23.910156 53.839844 23.636719 53.953125 C 23.359375 54.070312 23.078125 54.15625 22.785156 54.214844 C 22.496094 54.273438 22.199219 54.304688 21.902344 54.304688 C 21.605469 54.304688 21.308594 54.273438 21.019531 54.214844 C 20.726562 54.15625 20.445312 54.070312 20.167969 53.953125 C 19.894531 53.839844 19.632812 53.699219 19.386719 53.53125 C 19.140625 53.363281 18.914062 53.175781 18.707031 52.960938 C 18.5 52.75 18.3125 52.519531 18.152344 52.269531 C 17.988281 52.019531 17.851562 51.757812 17.742188 51.480469 C 17.632812 51.203125 17.550781 50.917969 17.5 50.625 C 17.445312 50.332031 17.421875 50.039062 17.429688 49.738281 L 17.429688 40.046875 L 7.738281 40.046875 C 7.265625 40.046875 6.804688 39.972656 6.355469 39.828125 C 5.902344 39.679688 5.488281 39.46875 5.105469 39.1875 C 4.722656 38.910156 4.394531 38.578125 4.117188 38.195312 C 3.839844 37.8125 3.628906 37.394531 3.480469 36.945312 C 3.335938 36.496094 3.265625 36.035156 3.265625 35.558594 C 3.269531 35.085938 3.34375 34.625 3.492188 34.175781 C 3.640625 33.726562 3.851562 33.3125 4.132812 32.929688 C 4.414062 32.546875 4.746094 32.21875 5.128906 31.945312 L 5.46875 31.699219 C 5.03125 31.335938 4.625 30.941406 4.25 30.511719 C 3.851562 30.058594 3.476562 29.585938 3.128906 29.09375 L 2.964844 29.214844 C 2.296875 29.714844 1.722656 30.308594 1.242188 30.988281 C 0.761719 31.671875 0.398438 32.410156 0.148438 33.207031 C -0.0976562 34.003906 -0.21875 34.816406 -0.210938 35.652344 C -0.203125 36.484375 -0.0664062 37.300781 0.199219 38.089844 C 0.460938 38.882812 0.839844 39.613281 1.335938 40.285156 C 1.828125 40.957031 2.414062 41.535156 3.089844 42.023438 C 3.769531 42.511719 4.503906 42.882812 5.296875 43.140625 C 6.089844 43.398438 6.90625 43.523438 7.738281 43.523438 L 13.949219 43.523438 L 13.949219 49.730469 C 13.941406 50.257812 13.984375 50.78125 14.082031 51.300781 C 14.179688 51.820312 14.324219 52.324219 14.519531 52.8125 C 14.714844 53.300781 14.957031 53.765625 15.246094 54.207031 C 15.535156 54.648438 15.867188 55.058594 16.234375 55.433594 C 16.605469 55.808594 17.007812 56.144531 17.445312 56.441406 C 17.882812 56.734375 18.34375 56.984375 18.832031 57.1875 C 19.316406 57.394531 19.820312 57.546875 20.335938 57.652344 C 20.851562 57.753906 21.375 57.804688 21.902344 57.804688 C 22.429688 57.804688 22.953125 57.753906 23.46875 57.652344 C 23.984375 57.546875 24.488281 57.394531 24.972656 57.1875 C 25.460938 56.984375 25.921875 56.734375 26.359375 56.441406 C 26.796875 56.144531 27.199219 55.808594 27.570312 55.433594 C 27.9375 55.058594 28.269531 54.648438 28.558594 54.207031 C 28.847656 53.765625 29.089844 53.300781 29.285156 52.8125 C 29.480469 52.324219 29.625 51.820312 29.722656 51.300781 C 29.820312 50.78125 29.863281 50.257812 29.855469 49.730469 L 29.855469 49.019531 C 29.242188 48.582031 28.671875 48.101562 28.140625 47.570312 Z M 28.140625 47.570312 " fill-opacity="1" fill-rule="nonzero"/></g><g clip-path="url(#ee7eef8836)"><path fill="#034a62" d="M 14.699219 29.152344 C 14.4375 29.769531 14.070312 30.320312 13.601562 30.800781 L 13.71875 31.0625 L 13.71875 31.09375 L 17.429688 31.09375 L 17.429688 21.410156 C 17.433594 21.117188 17.46875 20.832031 17.53125 20.550781 C 17.59375 20.265625 17.679688 19.992188 17.796875 19.726562 C 17.910156 19.457031 18.050781 19.207031 18.214844 18.96875 C 18.378906 18.726562 18.5625 18.507812 18.769531 18.304688 C 18.976562 18.101562 19.203125 17.917969 19.445312 17.761719 C 19.6875 17.601562 19.941406 17.46875 20.210938 17.355469 C 20.480469 17.246094 20.757812 17.164062 21.039062 17.109375 C 21.324219 17.054688 21.613281 17.023438 21.902344 17.023438 C 22.191406 17.023438 22.480469 17.054688 22.765625 17.109375 C 23.046875 17.164062 23.324219 17.246094 23.59375 17.355469 C 23.863281 17.46875 24.117188 17.601562 24.359375 17.761719 C 24.601562 17.917969 24.828125 18.101562 25.035156 18.304688 C 25.242188 18.507812 25.425781 18.726562 25.589844 18.96875 C 25.753906 19.207031 25.894531 19.457031 26.007812 19.726562 C 26.125 19.992188 26.210938 20.265625 26.273438 20.550781 C 26.335938 20.832031 26.371094 21.117188 26.375 21.410156 L 26.375 31.097656 L 28.039062 31.097656 C 28.59375 30.832031 29.179688 30.695312 29.796875 30.695312 C 30.410156 30.695312 30.996094 30.832031 31.550781 31.097656 L 36.0625 31.097656 C 36.355469 31.097656 36.644531 31.128906 36.933594 31.1875 C 37.222656 31.242188 37.5 31.328125 37.773438 31.441406 C 38.042969 31.554688 38.300781 31.691406 38.546875 31.855469 C 38.789062 32.019531 39.015625 32.203125 39.222656 32.410156 C 39.429688 32.617188 39.617188 32.84375 39.777344 33.089844 C 39.941406 33.332031 40.078125 33.589844 40.191406 33.859375 C 40.304688 34.132812 40.390625 34.410156 40.449219 34.699219 C 40.503906 34.988281 40.535156 35.277344 40.535156 35.570312 C 40.535156 35.84375 40.507812 36.113281 40.460938 36.382812 C 41.722656 36.632812 42.78125 37.128906 43.40625 38.234375 C 43.4375 38.292969 43.464844 38.355469 43.496094 38.417969 L 43.613281 38.066406 C 43.710938 37.769531 43.792969 37.46875 43.855469 37.160156 C 43.917969 36.851562 43.960938 36.542969 43.988281 36.230469 C 44.011719 35.917969 44.019531 35.605469 44.007812 35.292969 C 43.996094 34.980469 43.96875 34.667969 43.921875 34.359375 C 43.871094 34.046875 43.804688 33.742188 43.722656 33.441406 C 43.636719 33.136719 43.535156 32.84375 43.417969 32.550781 C 43.296875 32.261719 43.164062 31.980469 43.011719 31.707031 C 42.859375 31.433594 42.6875 31.167969 42.503906 30.914062 C 42.320312 30.660156 42.125 30.417969 41.910156 30.1875 C 41.699219 29.957031 41.472656 29.742188 41.234375 29.535156 C 41 29.332031 40.75 29.144531 40.488281 28.96875 C 40.226562 28.792969 39.957031 28.636719 39.679688 28.492188 C 39.398438 28.351562 39.113281 28.226562 38.820312 28.117188 C 38.527344 28.007812 38.226562 27.917969 37.921875 27.84375 C 37.617188 27.769531 37.308594 27.714844 36.996094 27.679688 C 36.6875 27.640625 36.375 27.625 36.058594 27.625 L 29.855469 27.625 L 29.855469 21.410156 C 29.847656 20.890625 29.789062 20.378906 29.683594 19.875 C 29.574219 19.367188 29.417969 18.878906 29.214844 18.402344 C 29.011719 17.925781 28.765625 17.476562 28.472656 17.046875 C 28.183594 16.621094 27.851562 16.226562 27.484375 15.863281 C 27.113281 15.5 26.714844 15.175781 26.285156 14.890625 C 25.851562 14.605469 25.398438 14.367188 24.917969 14.171875 C 24.441406 13.972656 23.945312 13.824219 23.4375 13.726562 C 22.933594 13.625 22.417969 13.578125 21.902344 13.578125 C 21.386719 13.578125 20.871094 13.625 20.367188 13.726562 C 19.859375 13.824219 19.363281 13.972656 18.886719 14.171875 C 18.40625 14.367188 17.953125 14.605469 17.519531 14.890625 C 17.089844 15.175781 16.691406 15.5 16.320312 15.863281 C 15.953125 16.226562 15.621094 16.621094 15.332031 17.046875 C 15.039062 17.476562 14.792969 17.925781 14.589844 18.402344 C 14.386719 18.878906 14.230469 19.367188 14.125 19.875 C 14.015625 20.378906 13.957031 20.890625 13.949219 21.410156 L 13.949219 21.554688 C 14.882812 23.835938 15.417969 27.410156 14.699219 29.152344 Z M 14.699219 29.152344 " fill-opacity="1" fill-rule="nonzero"/></g><path fill="#7bc1b7" d="M 2.304688 25.074219 C 2.457031 26.21875 3.621094 28.265625 5.015625 29.835938 C 5.589844 30.480469 6.441406 31.3125 7.246094 31.605469 C 7.980469 31.859375 8.734375 31.929688 9.503906 31.816406 L 9.90625 32.730469 C 10.035156 33.027344 10.257812 33.199219 10.574219 33.253906 L 10.617188 33.386719 L 11.039062 33.203125 C 11.082031 33.320312 11.125 33.429688 11.171875 33.535156 C 11.449219 34.175781 11.820312 34.757812 12.285156 35.28125 C 13.101562 36.183594 14.085938 36.832031 15.238281 37.226562 C 16.875 37.816406 18.25 37.621094 19.46875 37.445312 C 21.550781 37.148438 22.925781 36.949219 24.816406 40.941406 C 25.90625 43.242188 27.34375 45.335938 28.859375 46.84375 C 30.664062 48.632812 32.582031 49.59375 34.402344 49.640625 C 37.105469 49.691406 39.484375 47.835938 41.464844 44.097656 C 42.808594 41.5625 43.144531 39.851562 42.515625 38.738281 C 41.734375 37.355469 39.8125 37.246094 37.585938 37.121094 C 35.886719 37.023438 33.972656 36.917969 32.453125 36.203125 C 32.574219 35.988281 32.664062 35.761719 32.730469 35.523438 C 32.792969 35.285156 32.828125 35.042969 32.832031 34.796875 C 32.835938 34.550781 32.8125 34.304688 32.757812 34.066406 C 32.703125 33.824219 32.621094 33.59375 32.507812 33.375 C 32.398438 33.15625 32.261719 32.953125 32.101562 32.765625 C 31.941406 32.578125 31.757812 32.414062 31.558594 32.269531 C 31.355469 32.128906 31.140625 32.011719 30.914062 31.921875 C 30.683594 31.832031 30.445312 31.769531 30.203125 31.738281 C 29.957031 31.707031 29.714844 31.703125 29.46875 31.730469 C 29.222656 31.757812 28.984375 31.816406 28.753906 31.902344 C 28.523438 31.988281 28.304688 32.097656 28.101562 32.238281 C 27.898438 32.375 27.714844 32.539062 27.550781 32.722656 C 27.386719 32.90625 27.246094 33.105469 27.128906 33.324219 C 27.015625 33.542969 26.929688 33.769531 26.867188 34.007812 C 26.808594 34.25 26.78125 34.492188 26.78125 34.738281 C 26.777344 34.984375 26.808594 35.226562 26.867188 35.464844 C 26.925781 35.707031 27.015625 35.933594 27.128906 36.152344 C 27.246094 36.371094 27.382812 36.570312 27.546875 36.753906 C 27.710938 36.9375 27.898438 37.101562 28.101562 37.238281 C 28.304688 37.378906 28.519531 37.492188 28.753906 37.574219 C 28.984375 37.660156 29.222656 37.71875 29.464844 37.746094 C 29.710938 37.773438 29.957031 37.773438 30.199219 37.738281 C 30.445312 37.707031 30.683594 37.648438 30.910156 37.554688 C 31.140625 37.464844 31.355469 37.351562 31.558594 37.207031 C 33.390625 38.179688 35.578125 38.308594 37.515625 38.414062 C 39.285156 38.511719 40.957031 38.605469 41.386719 39.375 C 41.648438 39.835938 41.675781 40.921875 40.320312 43.484375 C 38.582031 46.757812 36.597656 48.398438 34.429688 48.339844 C 30.949219 48.265625 27.707031 44.011719 25.992188 40.390625 C 23.691406 35.535156 21.449219 35.855469 19.285156 36.164062 C 18.164062 36.324219 17.011719 36.492188 15.675781 36.011719 C 13.566406 35.253906 12.632812 33.820312 12.222656 32.691406 L 12.3125 32.652344 C 12.535156 32.554688 12.691406 32.390625 12.78125 32.160156 C 12.871094 31.933594 12.867188 31.707031 12.769531 31.480469 L 12.367188 30.566406 C 12.972656 30.078125 13.433594 29.476562 13.75 28.765625 C 14.523438 26.90625 13.523438 22.167969 12.3125 20.703125 C 11.765625 20.050781 10.929688 19.671875 9.875 19.605469 C 9.738281 19.347656 9.542969 19.148438 9.292969 19 C 9.046875 18.851562 8.777344 18.777344 8.488281 18.777344 C 8.355469 18.777344 8.226562 18.792969 8.101562 18.828125 C 7.976562 18.859375 7.855469 18.90625 7.742188 18.96875 C 7.625 19.03125 7.519531 19.105469 7.425781 19.195312 C 7.328125 19.28125 7.246094 19.378906 7.175781 19.488281 C 7.101562 19.597656 7.046875 19.714844 7.003906 19.835938 C 6.960938 19.960938 6.933594 20.085938 6.921875 20.21875 C 6.914062 20.347656 6.917969 20.476562 6.9375 20.605469 C 6.960938 20.734375 6.996094 20.855469 7.046875 20.976562 C 7.175781 21.269531 7.375 21.5 7.644531 21.671875 C 7.914062 21.84375 8.207031 21.925781 8.527344 21.917969 C 8.84375 21.910156 9.136719 21.816406 9.398438 21.632812 C 9.65625 21.449219 9.84375 21.207031 9.960938 20.910156 C 10.550781 20.96875 10.992188 21.164062 11.28125 21.488281 L 11.3125 21.523438 C 11.742188 22.042969 12.214844 23.367188 12.488281 24.824219 C 12.761719 26.277344 12.789062 27.671875 12.546875 28.253906 C 12.105469 29.316406 10.898438 30.03125 10.523438 30.234375 C 10.113281 30.375 8.777344 30.773438 7.691406 30.375 C 7.101562 30.15625 6.109375 29.203125 5.21875 27.992188 C 4.328125 26.78125 3.683594 25.550781 3.59375 24.878906 C 3.535156 24.433594 3.691406 23.960938 4.0625 23.464844 C 4.183594 23.515625 4.304688 23.546875 4.433594 23.566406 C 4.5625 23.582031 4.691406 23.582031 4.820312 23.570312 C 4.949219 23.554688 5.074219 23.523438 5.195312 23.480469 C 5.316406 23.433594 5.433594 23.375 5.539062 23.300781 C 5.644531 23.226562 5.742188 23.140625 5.828125 23.042969 C 5.914062 22.949219 5.984375 22.839844 6.042969 22.726562 C 6.105469 22.609375 6.148438 22.488281 6.179688 22.363281 C 6.207031 22.238281 6.222656 22.109375 6.21875 21.980469 C 6.21875 21.851562 6.199219 21.722656 6.164062 21.597656 C 6.132812 21.472656 6.085938 21.351562 6.019531 21.238281 C 5.957031 21.125 5.882812 21.023438 5.792969 20.929688 C 5.703125 20.832031 5.605469 20.75 5.496094 20.679688 C 5.386719 20.609375 5.273438 20.554688 5.148438 20.515625 C 5.027344 20.472656 4.902344 20.445312 4.769531 20.4375 C 4.640625 20.425781 4.515625 20.429688 4.386719 20.453125 C 4.257812 20.472656 4.132812 20.511719 4.015625 20.5625 C 3.832031 20.640625 3.671875 20.753906 3.527344 20.894531 C 3.386719 21.035156 3.277344 21.199219 3.195312 21.382812 C 3.117188 21.566406 3.074219 21.757812 3.066406 21.957031 C 3.0625 22.15625 3.089844 22.351562 3.160156 22.539062 C 2.488281 23.359375 2.191406 24.230469 2.304688 25.074219 Z M 2.304688 25.074219 " fill-opacity="1" fill-rule="nonzero"/><g fill="#034a62" fill-opacity="1"><g transform="translate(47.785982, 43.649609)"><g><path d="M 2.15625 -18.25 L 10.453125 -18.25 C 12.429688 -18.25 14.179688 -17.867188 15.703125 -17.109375 C 17.222656 -16.347656 18.40625 -15.28125 19.25 -13.90625 C 20.09375 -12.539062 20.515625 -10.945312 20.515625 -9.125 C 20.515625 -7.300781 20.09375 -5.703125 19.25 -4.328125 C 18.40625 -2.953125 17.222656 -1.882812 15.703125 -1.125 C 14.179688 -0.375 12.429688 0 10.453125 0 L 2.15625 0 Z M 10.25 -3.46875 C 12.070312 -3.46875 13.523438 -3.972656 14.609375 -4.984375 C 15.691406 -6.003906 16.234375 -7.382812 16.234375 -9.125 C 16.234375 -10.863281 15.691406 -12.238281 14.609375 -13.25 C 13.523438 -14.269531 12.070312 -14.78125 10.25 -14.78125 L 6.390625 -14.78125 L 6.390625 -3.46875 Z M 10.25 -3.46875 "/></g></g></g><g fill="#034a62" fill-opacity="1"><g transform="translate(69.30133, 43.649609)"><g><path d="M 11 0.3125 C 9.101562 0.3125 7.394531 -0.09375 5.875 -0.90625 C 4.351562 -1.726562 3.160156 -2.851562 2.296875 -4.28125 C 1.441406 -5.71875 1.015625 -7.332031 1.015625 -9.125 C 1.015625 -10.914062 1.441406 -12.523438 2.296875 -13.953125 C 3.160156 -15.390625 4.351562 -16.515625 5.875 -17.328125 C 7.394531 -18.148438 9.101562 -18.5625 11 -18.5625 C 12.894531 -18.5625 14.597656 -18.148438 16.109375 -17.328125 C 17.617188 -16.515625 18.804688 -15.390625 19.671875 -13.953125 C 20.546875 -12.523438 20.984375 -10.914062 20.984375 -9.125 C 20.984375 -7.332031 20.546875 -5.71875 19.671875 -4.28125 C 18.804688 -2.851562 17.617188 -1.726562 16.109375 -0.90625 C 14.597656 -0.09375 12.894531 0.3125 11 0.3125 Z M 11 -3.28125 C 12.070312 -3.28125 13.039062 -3.523438 13.90625 -4.015625 C 14.78125 -4.515625 15.460938 -5.207031 15.953125 -6.09375 C 16.453125 -6.976562 16.703125 -7.988281 16.703125 -9.125 C 16.703125 -10.25 16.453125 -11.253906 15.953125 -12.140625 C 15.460938 -13.023438 14.78125 -13.710938 13.90625 -14.203125 C 13.039062 -14.703125 12.070312 -14.953125 11 -14.953125 C 9.914062 -14.953125 8.941406 -14.703125 8.078125 -14.203125 C 7.210938 -13.710938 6.53125 -13.023438 6.03125 -12.140625 C 5.539062 -11.253906 5.296875 -10.25 5.296875 -9.125 C 5.296875 -7.988281 5.539062 -6.976562 6.03125 -6.09375 C 6.53125 -5.207031 7.210938 -4.515625 8.078125 -4.015625 C 8.941406 -3.523438 9.914062 -3.28125 11 -3.28125 Z M 11 -3.28125 "/></g></g></g><g fill="#034a62" fill-opacity="1"><g transform="translate(91.285536, 43.649609)"><g><path d="M 10.890625 0.3125 C 9.035156 0.3125 7.351562 -0.0859375 5.84375 -0.890625 C 4.34375 -1.703125 3.160156 -2.820312 2.296875 -4.25 C 1.441406 -5.6875 1.015625 -7.3125 1.015625 -9.125 C 1.015625 -10.925781 1.441406 -12.539062 2.296875 -13.96875 C 3.160156 -15.40625 4.34375 -16.53125 5.84375 -17.34375 C 7.351562 -18.15625 9.046875 -18.5625 10.921875 -18.5625 C 12.503906 -18.5625 13.929688 -18.28125 15.203125 -17.71875 C 16.484375 -17.164062 17.554688 -16.367188 18.421875 -15.328125 L 15.71875 -12.828125 C 14.476562 -14.242188 12.945312 -14.953125 11.125 -14.953125 C 10 -14.953125 8.992188 -14.703125 8.109375 -14.203125 C 7.222656 -13.710938 6.53125 -13.023438 6.03125 -12.140625 C 5.539062 -11.253906 5.296875 -10.25 5.296875 -9.125 C 5.296875 -7.988281 5.539062 -6.976562 6.03125 -6.09375 C 6.53125 -5.207031 7.222656 -4.515625 8.109375 -4.015625 C 8.992188 -3.523438 10 -3.28125 11.125 -3.28125 C 12.945312 -3.28125 14.476562 -4.003906 15.71875 -5.453125 L 18.421875 -2.9375 C 17.554688 -1.882812 16.476562 -1.078125 15.1875 -0.515625 C 13.90625 0.0351562 12.472656 0.3125 10.890625 0.3125 Z M 10.890625 0.3125 "/></g></g></g><g fill="#034a62" fill-opacity="1"><g transform="translate(110.378457, 43.649609)"><g><path d="M 5.9375 -14.796875 L 0.109375 -14.796875 L 0.109375 -18.25 L 16 -18.25 L 16 -14.796875 L 10.171875 -14.796875 L 10.171875 0 L 5.9375 0 Z M 5.9375 -14.796875 "/></g></g></g><g fill="#034a62" fill-opacity="1"><g transform="translate(126.475912, 43.649609)"><g><path d="M 11 0.3125 C 9.101562 0.3125 7.394531 -0.09375 5.875 -0.90625 C 4.351562 -1.726562 3.160156 -2.851562 2.296875 -4.28125 C 1.441406 -5.71875 1.015625 -7.332031 1.015625 -9.125 C 1.015625 -10.914062 1.441406 -12.523438 2.296875 -13.953125 C 3.160156 -15.390625 4.351562 -16.515625 5.875 -17.328125 C 7.394531 -18.148438 9.101562 -18.5625 11 -18.5625 C 12.894531 -18.5625 14.597656 -18.148438 16.109375 -17.328125 C 17.617188 -16.515625 18.804688 -15.390625 19.671875 -13.953125 C 20.546875 -12.523438 20.984375 -10.914062 20.984375 -9.125 C 20.984375 -7.332031 20.546875 -5.71875 19.671875 -4.28125 C 18.804688 -2.851562 17.617188 -1.726562 16.109375 -0.90625 C 14.597656 -0.09375 12.894531 0.3125 11 0.3125 Z M 11 -3.28125 C 12.070312 -3.28125 13.039062 -3.523438 13.90625 -4.015625 C 14.78125 -4.515625 15.460938 -5.207031 15.953125 -6.09375 C 16.453125 -6.976562 16.703125 -7.988281 16.703125 -9.125 C 16.703125 -10.25 16.453125 -11.253906 15.953125 -12.140625 C 15.460938 -13.023438 14.78125 -13.710938 13.90625 -14.203125 C 13.039062 -14.703125 12.070312 -14.953125 11 -14.953125 C 9.914062 -14.953125 8.941406 -14.703125 8.078125 -14.203125 C 7.210938 -13.710938 6.53125 -13.023438 6.03125 -12.140625 C 5.539062 -11.253906 5.296875 -10.25 5.296875 -9.125 C 5.296875 -7.988281 5.539062 -6.976562 6.03125 -6.09375 C 6.53125 -5.207031 7.210938 -4.515625 8.078125 -4.015625 C 8.941406 -3.523438 9.914062 -3.28125 11 -3.28125 Z M 11 -3.28125 "/></g></g></g><g fill="#034a62" fill-opacity="1"><g transform="translate(148.460118, 43.649609)"><g><path d="M 13.78125 0 L 10.265625 -5.078125 L 6.390625 -5.078125 L 6.390625 0 L 2.15625 0 L 2.15625 -18.25 L 10.0625 -18.25 C 11.675781 -18.25 13.078125 -17.976562 14.265625 -17.4375 C 15.453125 -16.894531 16.367188 -16.128906 17.015625 -15.140625 C 17.660156 -14.148438 17.984375 -12.976562 17.984375 -11.625 C 17.984375 -10.269531 17.65625 -9.097656 17 -8.109375 C 16.351562 -7.128906 15.429688 -6.378906 14.234375 -5.859375 L 18.328125 0 Z M 13.703125 -11.625 C 13.703125 -12.644531 13.375 -13.425781 12.71875 -13.96875 C 12.0625 -14.519531 11.097656 -14.796875 9.828125 -14.796875 L 6.390625 -14.796875 L 6.390625 -8.4375 L 9.828125 -8.4375 C 11.097656 -8.4375 12.0625 -8.710938 12.71875 -9.265625 C 13.375 -9.828125 13.703125 -10.613281 13.703125 -11.625 Z M 13.703125 -11.625 "/></g></g></g><g fill="#034a62" fill-opacity="1"><g transform="translate(167.605129, 43.649609)"><g><path d="M 2.15625 -18.25 L 6.390625 -18.25 L 6.390625 0 L 2.15625 0 Z M 2.15625 -18.25 "/></g></g></g><g fill="#034a62" fill-opacity="1"><g transform="translate(176.14876, 43.649609)"><g><path d="M 18.890625 -18.25 L 18.890625 0 L 15.421875 0 L 6.328125 -11.078125 L 6.328125 0 L 2.15625 0 L 2.15625 -18.25 L 5.65625 -18.25 L 14.71875 -7.171875 L 14.71875 -18.25 Z M 18.890625 -18.25 "/></g></g></g><g fill="#034a62" fill-opacity="1"><g transform="translate(197.195249, 43.649609)"><g><path d="M 11 0.3125 C 9.101562 0.3125 7.394531 -0.09375 5.875 -0.90625 C 4.351562 -1.726562 3.160156 -2.851562 2.296875 -4.28125 C 1.441406 -5.71875 1.015625 -7.332031 1.015625 -9.125 C 1.015625 -10.914062 1.441406 -12.523438 2.296875 -13.953125 C 3.160156 -15.390625 4.351562 -16.515625 5.875 -17.328125 C 7.394531 -18.148438 9.101562 -18.5625 11 -18.5625 C 12.894531 -18.5625 14.597656 -18.148438 16.109375 -17.328125 C 17.617188 -16.515625 18.804688 -15.390625 19.671875 -13.953125 C 20.546875 -12.523438 20.984375 -10.914062 20.984375 -9.125 C 20.984375 -7.332031 20.546875 -5.71875 19.671875 -4.28125 C 18.804688 -2.851562 17.617188 -1.726562 16.109375 -0.90625 C 14.597656 -0.09375 12.894531 0.3125 11 0.3125 Z M 11 -3.28125 C 12.070312 -3.28125 13.039062 -3.523438 13.90625 -4.015625 C 14.78125 -4.515625 15.460938 -5.207031 15.953125 -6.09375 C 16.453125 -6.976562 16.703125 -7.988281 16.703125 -9.125 C 16.703125 -10.25 16.453125 -11.253906 15.953125 -12.140625 C 15.460938 -13.023438 14.78125 -13.710938 13.90625 -14.203125 C 13.039062 -14.703125 12.070312 -14.953125 11 -14.953125 C 9.914062 -14.953125 8.941406 -14.703125 8.078125 -14.203125 C 7.210938 -13.710938 6.53125 -13.023438 6.03125 -12.140625 C 5.539062 -11.253906 5.296875 -10.25 5.296875 -9.125 C 5.296875 -7.988281 5.539062 -6.976562 6.03125 -6.09375 C 6.53125 -5.207031 7.210938 -4.515625 8.078125 -4.015625 C 8.941406 -3.523438 9.914062 -3.28125 11 -3.28125 Z M 11 -3.28125 "/></g></g></g></svg>